# xmcd
#
# Track frame offsets:
#	150
#	21557
#	36667
#	52205
#	68292
#	84795
#	101260
#	116327
#	131270
#	151992
#	168167
#	179670
#	195652
#	210320
#
# Disc length: 3029 seconds
#
# Revision: 1
# Processed by: cddbd v1.5.1PL0 Copyright (c) Steve Scherf et al.
# Submitted via: audiograbber 1.83.01
#
DISCID=b20bd30e
DTITLE=John Lee Hooker - Low Down Midnite Boogie
DYEAR=2004
DGENRE=Blues
TTITLE0=Can't You See What You're Doing To Me
TTITLE1=Sittin' Here Thinkin'
TTITLE2=I Bought You A Brand New Home
TTITLE3=Teasin' Me
TTITLE4=When My First Wife Quit Me
TTITLE5=C.C. Rider
TTITLE6=My Cryin' Days Are Over
TTITLE7=How Long, How Long Blues
TTITLE8=Sad And Lonesome
TTITLE9=Low Down Midnite Boogie
TTITLE10=Twister Blues
TTITLE11=Good Business
TTITLE12=Mercy Blues
TTITLE13=Goin' Mad Blues
EXTD=The Best of The Savoy Sessions -High Resolution Digital Transfer and Maste
EXTD=ring by SLG, California
EXTT0=
EXTT1=
EXTT2=
EXTT3=
EXTT4=
EXTT5=
EXTT6=
EXTT7=
EXTT8=
EXTT9=
EXTT10=
EXTT11=
EXTT12=
EXTT13=
PLAYORDER=
